<?xml version="1.0" encoding="UTF-8" standalone="no"?>
<!-- Generator: Adobe Illustrator 24.3.0, SVG Export Plug-In . SVG Version: 6.00 Build 0)  -->

<svg
   version="1.1"
   id="Layer_1"
   x="0px"
   y="0px"
   viewBox="0 0 137.48 137.48"
   xml:space="preserve"
   sodipodi:docname="Uqbar Logo only"
   width="137.48"
   height="137.48"
   inkscape:export-filename="../fb6613f2/logo256-orange.png"
   inkscape:export-xdpi="178.75999"
   inkscape:export-ydpi="178.75999"
   inkscape:version="1.2.1 (2ed6d7ae0b, 2022-08-22, custom)"
   xmlns:inkscape="http://www.inkscape.org/namespaces/inkscape"
   xmlns:sodipodi="http://sodipodi.sourceforge.net/DTD/sodipodi-0.dtd"
   xmlns="http://www.w3.org/2000/svg"
   xmlns:svg="http://www.w3.org/2000/svg"><defs
   id="defs55" /><sodipodi:namedview
   id="namedview53"
   pagecolor="#ffffff"
   bordercolor="#000000"
   borderopacity="0.25"
   inkscape:showpageshadow="2"
   inkscape:pageopacity="0.0"
   inkscape:pagecheckerboard="0"
   inkscape:deskcolor="#d1d1d1"
   showgrid="false"
   inkscape:zoom="1.7713025"
   inkscape:cx="178.96435"
   inkscape:cy="94.84546"
   inkscape:window-width="1452"
   inkscape:window-height="1205"
   inkscape:window-x="26"
   inkscape:window-y="23"
   inkscape:window-maximized="0"
   inkscape:current-layer="g50" />
<style
   type="text/css"
   id="style18">
	.st0{fill:#DD7C8A;}
	.st1{fill:#727BF2;}
</style>
<g
   id="g50"
   transform="translate(-194.58,-331.26)">
	<g
   id="g24">
		<path
   class="st0"
   d="m 251.13,369.45 v -37.09 c -2.77,0.5 -5.48,1.14 -8.12,1.95 v 38.78 c 2.5,-1.58 5.22,-2.81 8.12,-3.64 z"
   id="path20"
   style="fill:#ff842a;fill-opacity:1" />
		<path
   class="st0"
   d="m 243.01,426.91 v 38.78 c 2.64,0.82 5.36,1.46 8.12,1.95 v -37.09 c -2.9,-0.83 -5.62,-2.06 -8.12,-3.64 z"
   id="path22"
   style="fill:#ff842a;fill-opacity:1" />
	</g>
	
	
	
	
	
	<path
   class="st1"
   d="m 307.79,347.6 c -2.65,-2.25 -5.47,-4.31 -8.44,-6.15 -2.43,-1.5 -4.97,-2.85 -7.6,-4.04 V 400 462.58 c 2.62,-1.19 5.16,-2.54 7.6,-4.04 2.97,-1.83 5.79,-3.89 8.44,-6.15 14.84,-12.61 24.27,-31.4 24.27,-52.4 0,-20.99 -9.43,-39.78 -24.27,-52.39 z"
   id="path36"
   style="fill:#20dcf9;fill-opacity:1" />
	<path
   class="st0"
   d="m 267.38,369.08 v 61.84 c 13.98,-3.35 24.37,-15.92 24.37,-30.92 0,-15 -10.39,-27.57 -24.37,-30.92 z"
   id="path38"
   style="fill:#ff842a;fill-opacity:1" />
	<path
   class="st0"
   d="m 259.95,368.2 c 2.56,0 5.05,0.31 7.43,0.88 v -37.69 c -1.34,-0.08 -2.7,-0.13 -4.06,-0.13 -1.36,0 -2.72,0.05 -4.06,0.13 v 36.83 c 0.23,-0.01 0.46,-0.02 0.69,-0.02 z"
   id="path40"
   style="fill:#ff842a;fill-opacity:1" />
	<path
   class="st0"
   d="m 194.58,400 c 0,11.49 2.83,22.31 7.82,31.83 v -63.66 c -4.99,9.52 -7.82,20.34 -7.82,31.83 z"
   id="path42"
   style="fill:#ff842a;fill-opacity:1" />
	<path
   class="st0"
   d="m 210.52,355.99 v 88.02 c 2.47,2.96 5.19,5.7 8.12,8.21 V 347.78 c -2.93,2.51 -5.65,5.25 -8.12,8.21 z"
   id="path44"
   style="fill:#ff842a;fill-opacity:1" />
	<path
   class="st0"
   d="m 228.15,400 c 0,-7.38 2.52,-14.17 6.74,-19.57 v -43.02 c -2.81,1.28 -5.53,2.74 -8.12,4.38 V 458.2 c 2.6,1.63 5.31,3.1 8.12,4.38 v -43.02 c -4.22,-5.39 -6.74,-12.18 -6.74,-19.56 z"
   id="path46"
   style="fill:#ff842a;fill-opacity:1" />
	<path
   class="st0"
   d="m 259.95,431.8 c -0.23,0 -0.46,-0.01 -0.69,-0.02 v 36.83 c 1.34,0.08 2.7,0.13 4.06,0.13 1.36,0 2.72,-0.05 4.06,-0.13 v -37.69 c -2.38,0.57 -4.87,0.88 -7.43,0.88 z"
   id="path48"
   style="fill:#ff842a;fill-opacity:1" />
</g>
</svg>
